<svg xmlns="http://www.w3.org/2000/svg" viewBox="0 0 256 256" width="256" height="256">
  <defs>
    <linearGradient id="g" x1="0" y1="0" x2="0" y2="1">
      <stop offset="0" stop-color="#4f8cff"/>
      <stop offset="1" stop-color="#22c55e"/>
    </linearGradient>
    <filter id="s" x="-20%" y="-20%" width="140%" height="140%">
      <feDropShadow dx="0" dy="6" stdDeviation="10" flood-color="#000" flood-opacity="0.35"/>
    </filter>
  </defs>
  <rect x="16" y="16" width="224" height="224" rx="44" fill="#0b1220"/>
  <path filter="url(#s)" fill="url(#g)" d="M146 30 112 44 104 72 84 90 76 122 90 146 84 176 100 208 138 226 170 206 184 172 170 150 178 120 166 92 150 72z"/>
  <path fill="none" stroke="rgba(232,238,252,0.75)" stroke-width="6" d="M146 30 112 44 104 72 84 90 76 122 90 146 84 176 100 208 138 226 170 206 184 172 170 150 178 120 166 92 150 72z"/>
  <circle cx="140" cy="128" r="10" fill="rgba(232,238,252,0.9)"/>
</svg>
